# xmcd
# Copyright (C) 1995-1998 Ti Kan
#
# Track frame offsets:
#       150
#       83508
#       179764
#
# Disc length: 3699 seconds
#
# Revision: 0
# Processed by: cddbd v1.5.2PL0 Copyright (c) Steve Scherf et al.
# Submitted via: CD-Transfer v1.0
#
DISCID=1c0e7103
DTITLE=Willy Beer - 
DYEAR=1900
DGENRE=
TTITLE0=Musigparade 17.12. - 01
TTITLE1=Musigparade 17.12. - 02
TTITLE2=Musigparade 17.12. - 03
EXTD=
EXTT0=
EXTT1=
EXTT2=
PLAYORDER=
